{
  "accessors": [
    {
      "bufferView": 2,
      "componentType": 5126,
      "count": 3700,
      "max": [
        2.755495071411133,
        2.445100784301758,
        2.1464273929595947
      ],
      "min": [
        -6.514586925506592,
        -2.445100784301758,
        -1.6702864170074463
      ],
      "type": "VEC3"
    },
    {
      "bufferView": 2,
      "byteOffset": 44400,
      "componentType": 5126,
      "count": 3700,
      "type": "VEC3"
    },
    {
      "bufferView": 3,
      "componentType": 5126,
      "count": 3700,
      "type": "VEC4"
    },
    {
      "bufferView": 1,
      "componentType": 5126,
      "count": 3700,
      "type": "VEC2"
    },
    {
      "bufferView": 1,
      "byteOffset": 29600,
      "componentType": 5126,
      "count": 3700,
      "type": "VEC2"
    },
    {
      "bufferView": 0,
      "componentType": 5125,
      "count": 18912,
      "type": "SCALAR"
    },
    {
      "bufferView": 2,
      "byteOffset": 88800,
      "componentType": 5126,
      "count": 57876,
      "max": [
        1.7405849695205688,
        2.381488561630249,
        2.219304323196411
      ],
      "min": [
        0.5609540343284607,
        -2.3945446014404297,
        0.3328324258327484
      ],
      "type": "VEC3"
    },
    {
      "bufferView": 2,
      "byteOffset": 783312,
      "componentType": 5126,
      "count": 57876,
      "type": "VEC3"
    },
    {
      "bufferView": 0,
      "byteOffset": 75648,
      "componentType": 5125,
      "count": 57876,
      "type": "SCALAR"
    }
  ],
  "asset": {
    "generator": "fab-model-conversion",
    "version": "2.0"
  },
  "bufferViews": [
    {
      "buffer": 0,
      "byteLength": 307152,
      "target": 34963
    },
    {
      "buffer": 0,
      "byteLength": 59200,
      "byteOffset": 307152,
      "byteStride": 8,
      "target": 34962
    },
    {
      "buffer": 0,
      "byteLength": 1477824,
      "byteOffset": 366352,
      "byteStride": 12,
      "target": 34962
    },
    {
      "buffer": 0,
      "byteLength": 59200,
      "byteOffset": 1844176,
      "byteStride": 16,
      "target": 34962
    }
  ],
  "buffers": [
    {
      "byteLength": 1903376,
      "uri": "scene.bin"
    }
  ],
  "images": [
    {
      "uri": "textures/BSurfaceMesh_baseColor.png"
    },
    {
      "uri": "textures/BSurfaceMesh_metallicRoughness.png"
    },
    {
      "uri": "textures/BSurfaceMesh_normal.png"
    }
  ],
  "materials": [
    {
      "emissiveFactor": [
        0.15,
        0.15,
        0.15
      ],
      "emissiveTexture": {
        "index": 0
      },
      "name": "BSurfaceMesh",
      "normalTexture": {
        "index": 2,
        "scale": 0.38247735612146627
      },
      "occlusionTexture": {
        "index": 1,
        "strength": 0.06552400921602808
      },
      "pbrMetallicRoughness": {
        "baseColorTexture": {
          "index": 0
        },
        "metallicRoughnessTexture": {
          "index": 1
        }
      }
    },
    {
      "doubleSided": true,
      "name": "Fur_Material",
      "pbrMetallicRoughness": {
        "baseColorFactor": [
          0.9504074916579607,
          0.7703810751461827,
          0.7703810751461827,
          1.0
        ]
      }
    }
  ],
  "meshes": [
    {
      "name": "axl_low_BSurfaceMesh_0",
      "primitives": [
        {
          "attributes": {
            "NORMAL": 1,
            "POSITION": 0,
            "TANGENT": 2,
            "TEXCOORD_0": 3,
            "TEXCOORD_1": 4
          },
          "indices": 5,
          "material": 0,
          "mode": 4
        }
      ]
    },
    {
      "name": "Curves_Fur Material_0",
      "primitives": [
        {
          "attributes": {
            "NORMAL": 7,
            "POSITION": 6
          },
          "indices": 8,
          "material": 1,
          "mode": 4
        }
      ]
    }
  ],
  "nodes": [
    {
      "children": [
        1
      ],
      "matrix": [
        1.0,
        0.0,
        0.0,
        0.0,
        0.0,
        2.220446049250313e-16,
        -1.0,
        0.0,
        0.0,
        1.0,
        2.220446049250313e-16,
        0.0,
        0.0,
        0.0,
        0.0,
        1.0
      ],
      "name": "Sketchfab_model"
    },
    {
      "children": [
        2
      ],
      "matrix": [
        1.0,
        0.0,
        0.0,
        0.0,
        0.0,
        0.0,
        1.0,
        0.0,
        0.0,
        -1.0,
        0.0,
        0.0,
        0.0,
        0.0,
        0.0,
        1.0
      ],
      "name": "a67b00c56fa847179bff1e0a03c8542d.fbx"
    },
    {
      "children": [
        3,
        5
      ],
      "name": "RootNode"
    },
    {
      "children": [
        4
      ],
      "matrix": [
        100.0,
        0.0,
        0.0,
        0.0,
        0.0,
        -1.629206793918314e-05,
        -99.99999999999868,
        0.0,
        0.0,
        99.99999999999868,
        -1.629206793918314e-05,
        0.0,
        0.0,
        0.0,
        0.0,
        1.0
      ],
      "name": "axl_low"
    },
    {
      "mesh": 0,
      "name": "axl_low_BSurfaceMesh_0"
    },
    {
      "children": [
        6
      ],
      "matrix": [
        100.0,
        0.0,
        0.0,
        0.0,
        0.0,
        -1.629206793918314e-05,
        -99.99999999999868,
        0.0,
        0.0,
        99.99999999999868,
        -1.629206793918314e-05,
        0.0,
        0.0,
        0.0,
        0.0,
        1.0
      ],
      "name": "Curves"
    },
    {
      "mesh": 1,
      "name": "Curves_Fur Material_0"
    }
  ],
  "samplers": [
    {
      "magFilter": 9729,
      "minFilter": 9987,
      "wrapS": 10497,
      "wrapT": 10497
    }
  ],
  "scene": 0,
  "scenes": [
    {
      "name": "Sketchfab_Scene",
      "nodes": [
        0
      ]
    }
  ],
  "textures": [
    {
      "sampler": 0,
      "source": 0
    },
    {
      "sampler": 0,
      "source": 1
    },
    {
      "sampler": 0,
      "source": 2
    }
  ]
}
